<?xml version="1.0" standalone="no"?>
<!DOCTYPE svg PUBLIC "-//W3C//DTD SVG 20010904//EN"
 "http://www.w3.org/TR/2001/REC-SVG-20010904/DTD/svg10.dtd">
<svg version="1.0" xmlns="http://www.w3.org/2000/svg"
 width="198.000000pt" height="225.000000pt" viewBox="0 0 198.000000 225.000000"
 preserveAspectRatio="xMidYMid meet">

<g transform="translate(0.000000,225.000000) scale(0.100000,-0.100000)"
fill="#515151" stroke="none">
<path d="M5 2229 c-4 -11 -4 -82 -1 -157 4 -75 8 -202 11 -282 8 -235 16 -311
35 -330 10 -10 69 -27 150 -43 73 -15 135 -29 138 -32 3 -2 -11 -22 -31 -44
-47 -52 -63 -84 -78 -159 -25 -121 29 -268 128 -345 29 -23 53 -45 53 -49 0
-16 -115 -8 -139 8 -22 16 -25 16 -40 -5 -9 -12 -30 -25 -46 -29 -16 -5 -30
-13 -32 -18 -11 -32 94 -112 207 -157 63 -25 65 -27 62 -59 -2 -18 -4 -67 -5
-109 -2 -68 1 -82 31 -139 17 -34 32 -66 32 -71 0 -4 -24 -19 -54 -32 -134
-62 -142 -191 -9 -173 89 12 213 94 213 141 0 12 20 15 110 15 109 0 110 0
124 -27 29 -58 99 -100 199 -123 37 -8 55 -7 82 4 41 17 43 31 12 77 -19 29
-58 60 -133 105 -18 12 -18 13 6 60 21 41 33 51 74 67 49 18 49 18 81 -5 18
-13 65 -51 104 -86 64 -56 74 -61 94 -51 43 23 148 112 144 122 -5 16 -130
110 -189 142 -55 30 -48 32 -186 -32 -40 -18 -76 -33 -81 -33 -5 0 -11 25 -13
56 l-3 56 50 -3 c114 -5 165 0 172 19 4 9 15 23 25 30 28 20 22 48 -15 65 -89
42 -167 75 -217 92 -30 10 -59 20 -64 23 -5 3 19 19 54 37 84 43 174 134 200
203 26 69 26 171 1 244 -20 59 -13 85 18 69 9 -5 56 -11 106 -15 49 -3 106 -9
125 -12 36 -6 37 -5 102 83 127 170 246 357 323 505 54 103 51 105 -102 90
-227 -21 -678 -140 -708 -185 -19 -29 -65 -192 -65 -228 0 -16 -6 -32 -13 -35
-8 -3 -49 7 -91 21 -104 35 -246 44 -335 21 -35 -10 -65 -15 -68 -12 -3 2 27
57 66 122 39 64 71 124 71 133 0 20 -95 113 -200 197 -92 74 -310 224 -367
253 -24 12 -43 26 -43 31 0 6 -15 10 -34 10 -26 0 -36 -5 -41 -21z"/>
</g>
</svg>
