<?xml version="1.0" standalone="no"?>
<!DOCTYPE svg PUBLIC "-//W3C//DTD SVG 20010904//EN"
 "http://www.w3.org/TR/2001/REC-SVG-20010904/DTD/svg10.dtd">
<svg version="1.0" xmlns="http://www.w3.org/2000/svg"
 width="600.000000pt" height="600.000000pt" viewBox="0 0 600.000000 600.000000"
 preserveAspectRatio="xMidYMid meet">
<metadata>
Created by potrace 1.14, written by Peter Selinger 2001-2017
</metadata>
<g transform="translate(0.000000,600.000000) scale(0.100000,-0.100000)"
fill="#000000" stroke="none">
<path d="M413 5990 c-41 -17 -47 -45 -47 -220 1 -91 4 -235 8 -320 13 -293 18
-431 31 -810 5 -178 21 -444 31 -520 24 -197 43 -237 120 -256 16 -4 35 -11
42 -17 6 -5 12 -7 12 -3 0 3 11 1 25 -4 14 -5 36 -12 48 -14 12 -3 31 -7 42
-10 11 -3 73 -16 137 -30 65 -13 126 -27 135 -30 10 -3 34 -8 53 -12 19 -3 40
-7 45 -8 6 -1 37 -8 70 -15 64 -14 95 -27 95 -39 0 -5 -9 -18 -20 -30 -11 -12
-20 -24 -20 -28 0 -4 -6 -12 -13 -18 -36 -30 -119 -138 -150 -196 -61 -112
-97 -261 -101 -410 -5 -189 61 -403 176 -573 43 -64 135 -160 211 -221 100
-81 127 -114 95 -117 -7 -1 -24 -3 -38 -5 -103 -17 -260 8 -337 52 l-41 24
-44 -46 c-43 -46 -91 -76 -139 -87 -43 -11 -80 -46 -70 -65 5 -9 9 -21 10 -27
1 -19 70 -92 128 -136 32 -24 60 -46 63 -49 7 -7 43 -29 60 -37 8 -4 17 -9 20
-12 17 -20 206 -112 333 -162 32 -13 70 -34 83 -48 22 -22 24 -30 19 -85 -3
-34 -8 -149 -10 -256 -5 -229 -5 -232 88 -423 85 -174 84 -171 50 -194 -33
-23 -97 -53 -112 -53 -6 0 -11 -3 -11 -8 0 -4 -17 -15 -37 -24 -107 -47 -229
-190 -234 -275 -4 -51 12 -92 47 -123 19 -16 40 -30 47 -31 7 0 21 -3 32 -5
121 -28 316 31 495 149 101 66 187 155 196 202 5 27 14 39 33 47 16 7 121 11
271 12 282 1 287 -1 330 -79 47 -85 134 -162 255 -227 39 -21 229 -84 280 -94
75 -13 134 -11 190 8 69 23 105 53 105 88 0 63 -89 182 -193 259 -84 61 -156
111 -162 111 -15 0 -84 54 -88 68 -5 26 83 190 124 231 42 43 183 104 241 104
20 0 47 -9 61 -19 14 -11 35 -26 47 -34 13 -8 31 -22 39 -30 9 -8 35 -28 56
-44 22 -17 42 -33 45 -36 3 -3 59 -52 124 -109 138 -118 196 -156 229 -147 28
7 177 106 177 118 0 4 5 8 10 8 6 0 23 11 38 24 15 14 38 34 52 46 59 50 130
123 130 134 0 13 -22 39 -58 68 -63 51 -131 105 -152 121 -180 129 -311 211
-374 233 -40 15 -101 16 -121 4 -5 -4 -32 -15 -60 -25 -27 -10 -87 -36 -132
-57 -45 -21 -87 -38 -92 -38 -6 0 -11 -4 -11 -9 0 -5 -15 -13 -32 -16 -18 -4
-44 -14 -58 -21 -24 -14 -118 -54 -125 -54 -14 0 -29 92 -39 241 l-4 57 232
-4 c270 -4 319 2 355 48 14 18 42 48 61 68 19 19 42 48 49 63 13 25 13 32 -4
63 -19 35 -51 54 -260 149 -98 45 -371 153 -482 191 l-83 28 21 22 c11 12 48
37 82 54 58 30 186 108 197 120 3 3 23 18 45 35 40 29 183 170 218 214 32 40
84 124 106 173 39 86 53 160 58 303 5 144 -8 259 -43 366 -29 90 -36 142 -23
177 10 26 31 28 87 8 44 -16 124 -26 327 -41 79 -6 119 -10 205 -21 25 -3 70
-6 100 -7 49 -1 59 2 86 29 31 31 209 263 274 359 18 28 36 52 39 55 34 29
461 687 461 708 0 6 4 12 8 14 15 6 152 248 257 454 64 127 70 152 42 184 -16
19 -32 22 -117 22 -46 1 -241 -16 -320 -28 -25 -3 -56 -7 -70 -9 -41 -4 -107
-15 -250 -42 -74 -14 -144 -26 -155 -28 -21 -4 -93 -19 -135 -29 -14 -4 -38
-9 -55 -12 -38 -7 -59 -12 -65 -14 -3 -1 -9 -3 -15 -4 -5 -1 -23 -5 -40 -9
-16 -4 -39 -9 -50 -12 -61 -12 -347 -89 -450 -121 -66 -20 -131 -38 -145 -41
-14 -3 -29 -9 -35 -13 -5 -4 -26 -11 -45 -15 -19 -4 -39 -11 -45 -14 -5 -4
-32 -16 -60 -26 -27 -10 -76 -31 -108 -47 -54 -27 -61 -34 -89 -95 -51 -113
-137 -430 -152 -561 -10 -84 -19 -95 -74 -88 -26 3 -85 17 -132 32 -126 38
-222 65 -245 69 -11 2 -40 6 -65 10 -25 3 -51 8 -58 10 -28 10 -174 19 -282
18 -104 0 -235 -8 -235 -13 0 -2 -9 -4 -20 -5 -11 -1 -47 -10 -80 -18 -33 -9
-84 -19 -114 -23 l-53 -7 41 79 c23 43 55 102 72 129 16 28 32 58 36 68 3 9 9
17 13 17 4 0 11 11 14 25 4 14 11 25 16 25 6 0 10 4 10 9 0 5 20 44 45 86 83
139 126 235 119 258 -8 25 -34 58 -108 137 -55 59 -221 213 -271 252 -16 12
-41 34 -56 48 -15 14 -42 36 -60 50 -18 14 -42 33 -53 42 -12 10 -39 31 -61
48 -22 16 -44 33 -50 38 -5 4 -26 18 -45 32 -19 13 -37 27 -40 30 -3 4 -27 22
-55 40 -27 19 -54 38 -60 42 -75 62 -595 408 -614 408 -5 0 -14 7 -21 15 -6 8
-15 14 -18 13 -12 -4 -90 51 -105 73 -13 17 -28 22 -79 25 -35 2 -73 0 -85 -6z"/>
</g>
</svg>
