<?xml version="1.0" standalone="no"?>
<!DOCTYPE svg PUBLIC "-//W3C//DTD SVG 20010904//EN"
 "http://www.w3.org/TR/2001/REC-SVG-20010904/DTD/svg10.dtd">
<svg version="1.0" xmlns="http://www.w3.org/2000/svg"
 width="225.000000pt" height="225.000000pt" viewBox="0 0 225.000000 225.000000"
 preserveAspectRatio="xMidYMid meet">
<metadata>
Created by potrace 1.14, written by Peter Selinger 2001-2017
</metadata>
<g transform="translate(0.000000,225.000000) scale(0.100000,-0.100000)"
fill="#000000" stroke="none">
<path d="M142 2237 c-11 -12 -10 -178 3 -472 11 -278 16 -308 52 -319 28 -8
205 -45 235 -49 41 -5 43 -13 9 -49 -17 -18 -43 -58 -58 -88 -22 -46 -27 -69
-27 -135 0 -128 46 -226 138 -294 25 -19 46 -38 46 -43 0 -4 -29 -8 -65 -8
-36 0 -65 4 -65 9 0 20 -31 19 -51 -2 -11 -12 -24 -23 -30 -23 -5 -1 -16 -2
-24 -3 -27 -2 -29 -31 -4 -58 34 -37 114 -86 189 -116 63 -25 65 -27 61 -59
-1 -18 -4 -67 -5 -109 -1 -67 3 -83 32 -139 17 -34 32 -66 32 -71 0 -4 -24
-19 -54 -32 -93 -43 -135 -127 -81 -163 54 -35 195 13 259 88 20 23 33 45 30
49 -5 9 29 11 151 11 48 1 61 -3 70 -18 40 -73 152 -135 248 -137 64 -1 85 19
67 62 -15 37 -65 83 -120 111 -22 11 -40 26 -40 33 0 6 10 30 23 52 17 30 34
44 71 58 l49 18 36 -25 c20 -14 61 -48 91 -76 80 -74 81 -74 131 -40 24 16 62
45 84 64 39 33 40 34 21 54 -22 25 -147 112 -195 136 -37 19 -42 18 -156 -34
-104 -49 -105 -49 -105 4 0 25 1 49 3 54 1 4 27 7 57 8 141 2 150 4 157 22 4
9 15 23 25 30 33 24 22 48 -34 75 -85 41 -192 84 -226 92 -50 10 -46 20 17 49
99 44 197 157 217 249 11 51 4 145 -15 199 -17 50 -18 58 -5 69 11 9 18 9 26
1 7 -7 32 -12 58 -12 25 0 76 -5 114 -10 38 -6 77 -8 87 -5 54 18 441 628 425
671 -17 44 -428 -28 -731 -128 -94 -31 -101 -35 -119 -71 -20 -42 -45 -124
-52 -177 -3 -19 -7 -44 -9 -55 -1 -11 -9 -18 -16 -16 -8 2 -20 4 -26 4 -7 0
-13 5 -13 10 0 6 -3 8 -6 4 -4 -3 -18 0 -33 7 -33 17 -152 36 -226 36 -32 0
-84 -7 -117 -16 -33 -8 -63 -13 -66 -10 -2 3 20 45 50 93 74 118 90 151 83
172 -5 17 -85 97 -161 161 -72 62 -328 240 -386 269 -15 8 -37 22 -47 33 -23
21 -64 24 -79 5z"/>
</g>
</svg>
